Coordinates
version=1
nRows=16
nColumns=40
inDegrees=yes

Units are S.I. units (second, meters, Newtons, ...)
Angles are in degrees.

endheader
time	pelvis_tilt	pelvis_list	pelvis_rotation	pelvis_tx	pelvis_ty	pelvis_tz	hip_flexion_r	hip_adduction_r	hip_rotation_r	knee_angle_r	knee_angle_r_beta	ankle_angle_r	subtalar_angle_r	mtp_angle_r	hip_flexion_l	hip_adduction_l	hip_rotation_l	knee_angle_l	knee_angle_l_beta	ankle_angle_l	subtalar_angle_l	mtp_angle_l	lumbar_extension	lumbar_bending	lumbar_rotation	arm_flex_r	arm_add_r	arm_rot_r	elbow_flex_r	pro_sup_r	wrist_flex_r	wrist_dev_r	arm_flex_l	arm_add_l	arm_rot_l	elbow_flex_l	pro_sup_l	wrist_flex_l	wrist_dev_l
     58.76900000	     -6.47211099	     -5.43457653	     -2.45738780	      1.07443079	      0.93259307	      0.44220185	     39.58054645	     -4.23561515	     -6.56243360	     62.05530258	     62.05530258	     -1.29862808	    -11.67580334	     -2.75767430	     15.21202144	     -8.07170216	    -11.16295834	     20.24016872	     20.24016872	     12.53907967	    -10.01338345	     -1.46712329	    -13.31839341	      5.81468362	      1.64446382	      5.07500877	    -13.78202446	     -4.93825705	     63.17875869	     45.91476271	      0.00000000	      0.00000000	     14.28952727	    -15.25171742	     -2.80824326	     64.46461943	     47.02876483	      0.00000000	      0.00000000
     58.78050000	     -6.50116783	     -5.56779153	     -2.64447989	      1.07366156	      0.93285785	      0.44256051	     39.88507815	     -3.86823589	     -6.65549705	     59.05892523	     59.05892523	     -1.08109200	    -11.01669612	     -2.59736106	     14.46256458	     -8.19751606	    -11.30237587	     19.83141667	     19.83141667	     12.80185430	     -9.93566527	     -1.51235177	    -13.52436963	      6.02612341	      2.56010722	      3.39876445	    -14.24798933	     -4.90758633	     60.05961079	     46.00455458	      0.00000000	      0.00000000	     15.98367557	    -15.00264796	     -2.90235542	     66.68546580	     47.08929220	      0.00000000	      0.00000000
     58.79200000	     -6.64924364	     -5.60077716	     -2.78819368	      1.07302142	      0.93284567	      0.44300488	     40.10743923	     -3.56606237	     -6.71343674	     55.68135117	     55.68135117	     -1.03596055	    -10.49696844	     -2.90491094	     13.83004986	     -8.22286569	    -11.48427811	     19.38130676	     19.38130676	     12.96429844	     -9.79574776	     -1.78638513	    -13.44962685	      6.09903811	      2.20652922	      3.93196323	    -13.60984660	     -5.49117547	     52.63379512	     46.25642867	      0.00000000	      0.00000000	     16.33604066	    -15.89150890	     -2.70460670	     70.42962524	     47.17124469	      0.00000000	      0.00000000
     58.80350000	     -6.64039331	     -5.70540314	     -2.91080102	      1.07264313	      0.93296798	      0.44350138	     39.88879103	     -3.24473923	     -6.99407660	     51.93492473	     51.93492473	     -0.75617192	     -9.73406906	     -2.70010309	     13.01832861	     -8.29575080	    -11.54463480	     18.95923332	     18.95923332	     13.24385323	     -9.79664219	     -1.84161058	    -13.65364322	      6.31865153	      2.94179307	      2.29998439	    -14.05745801	     -5.34788741	     50.06436225	     46.32439414	      0.00000000	      0.00000000	     17.73326857	    -15.57744306	     -3.11929020	     72.76993689	     47.25692509	      0.00000000	      0.00000000
     58.81500000	     -6.77617024	     -5.64194205	     -3.03003399	      1.07239753	      0.93269200	      0.44414587	     39.64080139	     -3.01861033	     -7.18885024	     47.89407642	     47.89407642	     -0.72197912	     -9.12578150	     -3.30171157	     12.33716783	     -8.21271590	    -11.71550472	     18.48170908	     18.48170908	     13.34350528	     -9.73931401	     -2.27740379	    -13.54733612	      6.24468160	      2.08168243	      3.47266206	    -13.40917825	     -5.45331012	     42.14345102	     46.56211121	      0.00000000	      0.00000000	     17.37860922	    -16.54628790	     -4.13595503	     77.39900961	     47.45387812	      0.00000000	      0.00000000
     58.82650000	     -6.84286430	     -5.57011646	     -3.10702160	      1.07238849	      0.93231527	      0.44479414	     39.11699522	     -2.82166160	     -7.53018482	     43.66891827	     43.66891827	     -0.35877744	     -8.11956943	     -2.96916115	     11.57752755	     -8.10579347	    -11.81660860	     18.02986292	     18.02986292	     13.61894918	     -9.60094195	     -2.44395739	    -13.59384933	      6.25216850	      2.69554283	      1.88625370	    -13.71922733	     -5.33848737	     39.55539096	     46.62535680	      0.00000000	      0.00000000	     18.56874161	    -16.32427856	     -4.48008324	     80.10984496	     47.54686072	      0.00000000	      0.00000000
     58.83800000	     -6.92683873	     -5.51811339	     -3.11728125	      1.07264869	      0.93175819	      0.44557158	     38.35787787	     -2.60265318	     -8.08661375	     39.20310879	     39.20310879	     -0.04546534	     -6.99757180	     -2.52118111	     10.83286500	     -8.03603342	    -11.95904606	     17.56543692	     17.56543692	     13.75095609	     -9.47980632	     -2.98348784	    -13.50401774	      6.25584189	      2.04256662	      2.19838992	    -13.40896424	     -5.59977214	     34.05611590	     46.78923453	      0.00000000	      0.00000000	     18.39140050	    -17.08946969	     -5.17435416	     84.05916854	     47.71508892	      0.00000000	      0.00000000
     58.84950000	     -7.08773378	     -5.44542250	     -3.07822967	      1.07309957	      0.93084840	      0.44643004	     37.51236177	     -2.34731335	     -8.67398289	     34.67776675	     34.67776675	      0.25881752	     -5.80133736	     -1.77058715	     10.20445027	     -7.94277821	    -11.99106911	     17.17930374	     17.17930374	     14.07691237	     -9.34578189	     -3.13557007	    -13.28462183	      6.35738915	      2.29938011	      0.43871849	    -13.56991677	     -5.58480776	     32.84121197	     46.81800800	      0.00000000	      0.00000000	     19.45518949	    -17.14741954	     -5.40983567	     85.80320641	     47.77371487	      0.00000000	      0.00000000
     58.86100000	     -6.98352294	     -5.20855973	     -3.04245361	      1.07408126	      0.92996719	      0.44736593	     36.32447137	     -2.32233828	     -9.58995638	     30.41747561	     30.41747561	      0.77931415	     -3.82239341	     -0.50100964	      9.17353192	     -7.68738380	    -12.26295936	     16.67016231	     16.67016231	     14.40628132	     -8.87141972	     -3.61008848	    -13.37911240	      6.08500239	      2.68852796	     -1.00623132	    -13.69791513	     -5.75746541	     30.34702089	     46.90082928	      0.00000000	      0.00000000	     19.96649034	    -17.19089959	     -5.17860544	     89.64640820	     47.85297397	      0.00000000	      0.00000000
     58.87250000	     -7.09734863	     -5.09256745	     -2.94807852	      1.07519603	      0.92859464	      0.44854527	     35.19181700	     -2.00812266	    -10.35853324	     26.16732495	     26.16732495	      0.93971176	     -2.40931538	      0.64574101	      8.46736750	     -7.57202571	    -12.28065278	     16.30648218	     16.30648218	     14.79981499	     -8.66902749	     -3.87126291	    -13.06701850	      6.07758605	      2.73654435	     -2.55856671	    -13.66464525	     -5.80631150	     29.22550962	     46.93217626	      0.00000000	      0.00000000	     20.68027587	    -17.42604305	     -5.32772544	     91.52610891	     47.90835753	      0.00000000	      0.00000000
     58.88400000	     -6.96808921	     -4.76089207	     -2.81089126	      1.07679464	      0.92715482	      0.44969554	     34.03787624	     -2.09646458	    -11.64080503	     22.88641776	     22.88641776	      1.76280736	      0.02528490	      3.16603861	      7.39436409	     -7.24575815	    -12.62472021	     15.81094378	     15.81094378	     15.21463570	     -7.93270363	     -4.49716548	    -13.07224020	      5.70199086	      2.55955213	     -3.74761996	    -13.55384927	     -6.17962310	     27.32841354	     47.00752199	      0.00000000	      0.00000000	     20.53637209	    -18.01011161	     -5.25620971	     95.77179190	     48.00917323	      0.00000000	      0.00000000
     58.89550000	     -6.93094283	     -4.62192607	     -2.63635373	      1.07855162	      0.92546459	      0.45111558	     32.85583412	     -1.80977275	    -12.60929211	     19.76084152	     19.76084152	      1.87721424	      1.40559256	      4.59159189	      6.50820609	     -7.12454308	    -12.61087695	     15.49330194	     15.49330194	     15.74297366	     -7.65349151	     -4.73436180	    -12.82441275	      5.64734829	      2.57061676	     -5.33083306	    -13.50157529	     -6.29383791	     26.48537645	     47.02875947	      0.00000000	      0.00000000	     20.92381469	    -18.13159454	     -5.46967901	     97.74437142	     48.07037986	      0.00000000	      0.00000000
     58.90700000	     -6.97807813	     -4.39307525	     -2.49710361	      1.08045679	      0.92345708	      0.45275836	     31.93373988	     -1.62292645	    -13.56872401	     17.38843937	     17.38843937	      1.91017626	      2.75934973	      5.71777448	      5.68400399	     -6.93891057	    -12.70070944	     15.14578728	     15.14578728	     16.29556029	     -7.26277080	     -4.90682104	    -12.46441020	      5.43096706	      2.64259342	     -6.93980016	    -13.35300588	     -6.38661355	     25.91916522	     47.03762997	      0.00000000	      0.00000000	     21.26467945	    -18.28683468	     -5.54740218	     99.89069112	     48.12427915	      0.00000000	      0.00000000
     58.91850000	     -6.87815438	     -4.22260532	     -2.30929887	      1.08261648	      0.92156352	      0.45448616	     31.02239666	     -1.48510067	    -14.70449113	     15.84592848	     15.84592848	      2.03466116	      4.15563220	      6.70579901	      4.71963128	     -6.83938768	    -12.77919631	     14.87578723	     14.87578723	     16.97147996	     -6.71896583	     -4.96149743	    -12.28513495	      5.27760810	      2.65718409	     -8.56333362	    -13.25199014	     -6.54974302	     25.64709454	     47.03691890	      0.00000000	      0.00000000	     21.24822109	    -18.47052777	     -5.52538166	    102.51626311	     48.18631968	      0.00000000	      0.00000000
     58.93000000	     -6.87604729	     -4.07257639	     -2.15249277	      1.08477450	      0.91947673	      0.45647649	     30.39497998	     -1.33534811	    -15.58753217	     15.01320597	     15.01320597	      2.04452743	      5.07235816	      7.18037684	      3.96339054	     -6.81590392	    -12.86444072	     14.81666854	     14.81666854	     17.75046243	     -6.22211417	     -4.78387587	    -11.98226993	      5.13638436	      2.58369572	    -10.11415796	    -13.08590320	     -6.71628205	     25.75002242	     47.01795592	      0.00000000	      0.00000000	     21.08269579	    -18.76277885	     -5.65445715	    104.95814312	     48.25605534	      0.00000000	      0.00000000
     58.94150000	     -6.90122775	     -3.98415919	     -2.00414677	      1.08690353	      0.91739437	      0.45868963	     29.92864277	     -1.14843784	    -16.20231977	     14.74951791	     14.74951791	      1.87652844	      5.45896513	      6.91103866	      3.36190444	     -6.90787332	    -12.88731078	     15.00624687	     15.00624687	     18.59123005	     -5.84682217	     -4.39572297	    -11.64869066	      5.05414399	      2.56292837	    -11.62258548	    -12.91660592	     -6.82766659	     26.03231086	     46.98620562	      0.00000000	      0.00000000	     20.86805798	    -18.95370870	     -5.89940632	    107.08480431	     48.32723918	      0.00000000	      0.00000000
